<mxfile host="Electron" agent="Mozilla/5.0 (Windows NT 10.0; Win64; x64) AppleWebKit/537.36 (KHTML, like Gecko) draw.io/24.7.8 Chrome/128.0.6613.36 Electron/32.0.1 Safari/537.36" version="24.7.8">
  <diagram name="Página-1" id="Kzz4A9cAKwC3pgu_2hy6">
    <mxGraphModel dx="1114" dy="1491" grid="1" gridSize="10" guides="1" tooltips="1" connect="1" arrows="1" fold="1" page="1" pageScale="1" pageWidth="1169" pageHeight="827" math="0" shadow="0">
      <root>
        <mxCell id="0" />
        <mxCell id="1" parent="0" />
        <mxCell id="6s5KsR02kv11YuWBgW1L-2" value="Mascota" style="html=1;whiteSpace=wrap;fillColor=none;" parent="1" vertex="1">
          <mxGeometry x="200" y="120" width="110" height="50" as="geometry" />
        </mxCell>
        <mxCell id="6s5KsR02kv11YuWBgW1L-3" value="Médico" style="html=1;whiteSpace=wrap;fillColor=none;" parent="1" vertex="1">
          <mxGeometry x="170" y="400" width="110" height="50" as="geometry" />
        </mxCell>
        <mxCell id="6s5KsR02kv11YuWBgW1L-4" value="Propietario" style="html=1;whiteSpace=wrap;fillColor=none;" parent="1" vertex="1">
          <mxGeometry x="680" y="120" width="110" height="50" as="geometry" />
        </mxCell>
        <mxCell id="6s5KsR02kv11YuWBgW1L-6" value="Nombre" style="ellipse;whiteSpace=wrap;html=1;fillColor=none;" parent="1" vertex="1">
          <mxGeometry x="330" y="80" width="75" height="30" as="geometry" />
        </mxCell>
        <mxCell id="6s5KsR02kv11YuWBgW1L-7" value="Especie" style="ellipse;whiteSpace=wrap;html=1;fillColor=none;" parent="1" vertex="1">
          <mxGeometry x="235" y="50" width="75" height="30" as="geometry" />
        </mxCell>
        <mxCell id="6s5KsR02kv11YuWBgW1L-9" value="Raza" style="ellipse;whiteSpace=wrap;html=1;fillColor=none;" parent="1" vertex="1">
          <mxGeometry x="135" y="50" width="75" height="30" as="geometry" />
        </mxCell>
        <mxCell id="6s5KsR02kv11YuWBgW1L-10" value="Color&lt;span style=&quot;color: rgba(0, 0, 0, 0); font-family: monospace; font-size: 0px; text-align: start; text-wrap: nowrap;&quot;&gt;%3CmxGraphModel%3E%3Croot%3E%3CmxCell%20id%3D%220%22%2F%3E%3CmxCell%20id%3D%221%22%20parent%3D%220%22%2F%3E%3CmxCell%20id%3D%222%22%20value%3D%22Nombre%22%20style%3D%22ellipse%3BwhiteSpace%3Dwrap%3Bhtml%3D1%3BfillColor%3Dnone%3B%22%20vertex%3D%221%22%20parent%3D%221%22%3E%3CmxGeometry%20x%3D%22185%22%20y%3D%2260%22%20width%3D%2275%22%20height%3D%2230%22%20as%3D%22geometry%22%2F%3E%3C%2FmxCell%3E%3C%2Froot%3E%3C%2FmxGraphModel%3E&lt;/span&gt;" style="ellipse;whiteSpace=wrap;html=1;fillColor=none;" parent="1" vertex="1">
          <mxGeometry x="85" y="100" width="75" height="30" as="geometry" />
        </mxCell>
        <mxCell id="6s5KsR02kv11YuWBgW1L-11" value="Sexo" style="ellipse;whiteSpace=wrap;html=1;fillColor=none;" parent="1" vertex="1">
          <mxGeometry x="130" y="210" width="75" height="30" as="geometry" />
        </mxCell>
        <mxCell id="6s5KsR02kv11YuWBgW1L-12" value="FechaDeNacimiento" style="ellipse;whiteSpace=wrap;html=1;fillColor=none;" parent="1" vertex="1">
          <mxGeometry x="210" y="220" width="135" height="40" as="geometry" />
        </mxCell>
        <mxCell id="6s5KsR02kv11YuWBgW1L-13" value="Edad" style="ellipse;whiteSpace=wrap;html=1;fillColor=none;" parent="1" vertex="1">
          <mxGeometry x="85" y="160" width="75" height="30" as="geometry" />
        </mxCell>
        <mxCell id="6s5KsR02kv11YuWBgW1L-14" value="&lt;u&gt;NombreC&lt;/u&gt;" style="ellipse;whiteSpace=wrap;html=1;fillColor=none;" parent="1" vertex="1">
          <mxGeometry x="657.5" y="40" width="75" height="30" as="geometry" />
        </mxCell>
        <mxCell id="6s5KsR02kv11YuWBgW1L-16" value="Dirección&lt;span style=&quot;color: rgba(0, 0, 0, 0); font-family: monospace; font-size: 0px; text-align: start; text-wrap: nowrap;&quot;&gt;%3CmxGraphModel%3E%3Croot%3E%3CmxCell%20id%3D%220%22%2F%3E%3CmxCell%20id%3D%221%22%20parent%3D%220%22%2F%3E%3CmxCell%20id%3D%222%22%20value%3D%22Nombre%22%20style%3D%22ellipse%3BwhiteSpace%3Dwrap%3Bhtml%3D1%3BfillColor%3Dnone%3B%22%20vertex%3D%221%22%20parent%3D%221%22%3E%3CmxGeometry%20x%3D%22660%22%20y%3D%2260%22%20width%3D%2275%22%20height%3D%2230%22%20as%3D%22geometry%22%2F%3E%3C%2FmxCell%3E%3C%2Froot%3E%3C%2FmxGraphModel%3E&lt;/span&gt;" style="ellipse;whiteSpace=wrap;html=1;fillColor=none;" parent="1" vertex="1">
          <mxGeometry x="840" y="80" width="75" height="30" as="geometry" />
        </mxCell>
        <mxCell id="6s5KsR02kv11YuWBgW1L-20" value="Nombre" style="ellipse;whiteSpace=wrap;html=1;fillColor=none;" parent="1" vertex="1">
          <mxGeometry x="80" y="340" width="75" height="30" as="geometry" />
        </mxCell>
        <mxCell id="6s5KsR02kv11YuWBgW1L-21" value="&lt;u&gt;Cédula&lt;/u&gt;" style="ellipse;whiteSpace=wrap;html=1;fillColor=none;" parent="1" vertex="1">
          <mxGeometry x="215" y="500" width="120" height="40" as="geometry" />
        </mxCell>
        <mxCell id="OG9TC6bBEFWWvDzXNbHQ-10" style="edgeStyle=orthogonalEdgeStyle;rounded=0;orthogonalLoop=1;jettySize=auto;html=1;entryX=0;entryY=0.5;entryDx=0;entryDy=0;endArrow=none;endFill=0;" edge="1" parent="1" source="6s5KsR02kv11YuWBgW1L-25" target="OG9TC6bBEFWWvDzXNbHQ-9">
          <mxGeometry relative="1" as="geometry">
            <Array as="points">
              <mxPoint x="970" y="301" />
              <mxPoint x="970" y="301" />
            </Array>
          </mxGeometry>
        </mxCell>
        <mxCell id="6s5KsR02kv11YuWBgW1L-25" value="Servicio" style="html=1;whiteSpace=wrap;fillColor=none;" parent="1" vertex="1">
          <mxGeometry x="838" y="276" width="110" height="50" as="geometry" />
        </mxCell>
        <mxCell id="6s5KsR02kv11YuWBgW1L-26" value="&lt;font style=&quot;font-size: 19px;&quot;&gt;O&lt;/font&gt;" style="triangle;whiteSpace=wrap;html=1;direction=north;fillColor=none;" parent="1" vertex="1">
          <mxGeometry x="862.5" y="400" width="62.5" height="50" as="geometry" />
        </mxCell>
        <mxCell id="6s5KsR02kv11YuWBgW1L-29" value="Consulta" style="html=1;whiteSpace=wrap;fillColor=none;" parent="1" vertex="1">
          <mxGeometry x="510" y="600" width="110" height="50" as="geometry" />
        </mxCell>
        <mxCell id="6s5KsR02kv11YuWBgW1L-30" value="Nombre" style="ellipse;whiteSpace=wrap;html=1;fillColor=none;" parent="1" vertex="1">
          <mxGeometry x="550" y="30" width="75" height="30" as="geometry" />
        </mxCell>
        <mxCell id="6s5KsR02kv11YuWBgW1L-31" value="Materno" style="ellipse;whiteSpace=wrap;html=1;fillColor=none;" parent="1" vertex="1">
          <mxGeometry x="625" y="-20" width="75" height="30" as="geometry" />
        </mxCell>
        <mxCell id="6s5KsR02kv11YuWBgW1L-32" value="Paterno" style="ellipse;whiteSpace=wrap;html=1;fillColor=none;" parent="1" vertex="1">
          <mxGeometry x="732.5" y="-10" width="75" height="30" as="geometry" />
        </mxCell>
        <mxCell id="6s5KsR02kv11YuWBgW1L-34" value="Desparacitación" style="html=1;whiteSpace=wrap;fillColor=none;" parent="1" vertex="1">
          <mxGeometry x="838.75" y="610" width="110" height="50" as="geometry" />
        </mxCell>
        <mxCell id="6s5KsR02kv11YuWBgW1L-35" value="Vacunación" style="html=1;whiteSpace=wrap;fillColor=none;" parent="1" vertex="1">
          <mxGeometry x="1130" y="556" width="110" height="50" as="geometry" />
        </mxCell>
        <mxCell id="6s5KsR02kv11YuWBgW1L-39" value="Procedimiento" style="ellipse;whiteSpace=wrap;html=1;fillColor=none;" parent="1" vertex="1">
          <mxGeometry x="516.25" y="720" width="97.5" height="30" as="geometry" />
        </mxCell>
        <mxCell id="6s5KsR02kv11YuWBgW1L-48" value="Lote&lt;span style=&quot;color: rgba(0, 0, 0, 0); font-family: monospace; font-size: 0px; text-align: start; text-wrap: nowrap;&quot;&gt;%3CmxGraphModel%3E%3Croot%3E%3CmxCell%20id%3D%220%22%2F%3E%3CmxCell%20id%3D%221%22%20parent%3D%220%22%2F%3E%3CmxCell%20id%3D%222%22%20value%3D%22Fecha%22%20style%3D%22ellipse%3BwhiteSpace%3Dwrap%3Bhtml%3D1%3BfillColor%3Dnone%3B%22%20vertex%3D%221%22%20parent%3D%221%22%3E%3CmxGeometry%20x%3D%221110%22%20y%3D%22240%22%20width%3D%2275%22%20height%3D%2230%22%20as%3D%22geometry%22%2F%3E%3C%2FmxCell%3E%3C%2Froot%3E%3C%2FmxGraphModel%3E&lt;/span&gt;" style="ellipse;whiteSpace=wrap;html=1;fillColor=none;" parent="1" vertex="1">
          <mxGeometry x="1230" y="710" width="75" height="30" as="geometry" />
        </mxCell>
        <mxCell id="6s5KsR02kv11YuWBgW1L-52" value="NombreVacuna" style="ellipse;whiteSpace=wrap;html=1;fillColor=none;" parent="1" vertex="1">
          <mxGeometry x="1090" y="700" width="100" height="30" as="geometry" />
        </mxCell>
        <mxCell id="6s5KsR02kv11YuWBgW1L-53" value="Estado" style="ellipse;whiteSpace=wrap;html=1;fillColor=none;" parent="1" vertex="1">
          <mxGeometry x="850" y="20" width="75" height="30" as="geometry" />
        </mxCell>
        <mxCell id="6s5KsR02kv11YuWBgW1L-54" value="CP" style="ellipse;whiteSpace=wrap;html=1;fillColor=none;" parent="1" vertex="1">
          <mxGeometry x="950" y="30" width="75" height="30" as="geometry" />
        </mxCell>
        <mxCell id="6s5KsR02kv11YuWBgW1L-55" value="Calle" style="ellipse;whiteSpace=wrap;html=1;fillColor=none;" parent="1" vertex="1">
          <mxGeometry x="980" y="70" width="75" height="30" as="geometry" />
        </mxCell>
        <mxCell id="6s5KsR02kv11YuWBgW1L-56" value="NumInterior" style="ellipse;whiteSpace=wrap;html=1;fillColor=none;" parent="1" vertex="1">
          <mxGeometry x="860" y="140" width="75" height="30" as="geometry" />
        </mxCell>
        <mxCell id="6s5KsR02kv11YuWBgW1L-57" value="NumExterior" style="ellipse;whiteSpace=wrap;html=1;fillColor=none;" parent="1" vertex="1">
          <mxGeometry x="960" y="120" width="75" height="30" as="geometry" />
        </mxCell>
        <mxCell id="6s5KsR02kv11YuWBgW1L-58" value="" style="endArrow=none;html=1;rounded=0;entryX=0.5;entryY=1;entryDx=0;entryDy=0;exitX=1;exitY=0;exitDx=0;exitDy=0;" parent="1" source="6s5KsR02kv11YuWBgW1L-14" target="6s5KsR02kv11YuWBgW1L-32" edge="1">
          <mxGeometry width="50" height="50" relative="1" as="geometry">
            <mxPoint x="593.75" y="110" as="sourcePoint" />
            <mxPoint x="643.75" y="60" as="targetPoint" />
          </mxGeometry>
        </mxCell>
        <mxCell id="6s5KsR02kv11YuWBgW1L-59" value="" style="endArrow=none;html=1;rounded=0;exitX=0;exitY=0.5;exitDx=0;exitDy=0;entryX=1;entryY=0.5;entryDx=0;entryDy=0;" parent="1" source="6s5KsR02kv11YuWBgW1L-14" target="6s5KsR02kv11YuWBgW1L-30" edge="1">
          <mxGeometry width="50" height="50" relative="1" as="geometry">
            <mxPoint x="680" y="70" as="sourcePoint" />
            <mxPoint x="730" y="20" as="targetPoint" />
          </mxGeometry>
        </mxCell>
        <mxCell id="6s5KsR02kv11YuWBgW1L-60" value="" style="endArrow=none;html=1;rounded=0;entryX=0.5;entryY=1;entryDx=0;entryDy=0;exitX=0.5;exitY=0;exitDx=0;exitDy=0;" parent="1" source="6s5KsR02kv11YuWBgW1L-14" target="6s5KsR02kv11YuWBgW1L-31" edge="1">
          <mxGeometry width="50" height="50" relative="1" as="geometry">
            <mxPoint x="680" y="70" as="sourcePoint" />
            <mxPoint x="730" y="20" as="targetPoint" />
          </mxGeometry>
        </mxCell>
        <mxCell id="6s5KsR02kv11YuWBgW1L-61" value="" style="endArrow=none;html=1;rounded=0;entryX=0.5;entryY=1;entryDx=0;entryDy=0;exitX=0.5;exitY=0;exitDx=0;exitDy=0;" parent="1" source="6s5KsR02kv11YuWBgW1L-16" target="6s5KsR02kv11YuWBgW1L-53" edge="1">
          <mxGeometry width="50" height="50" relative="1" as="geometry">
            <mxPoint x="850" y="110" as="sourcePoint" />
            <mxPoint x="900" y="60" as="targetPoint" />
          </mxGeometry>
        </mxCell>
        <mxCell id="6s5KsR02kv11YuWBgW1L-62" value="" style="endArrow=none;html=1;rounded=0;entryX=0;entryY=1;entryDx=0;entryDy=0;exitX=1;exitY=0;exitDx=0;exitDy=0;" parent="1" source="6s5KsR02kv11YuWBgW1L-16" target="6s5KsR02kv11YuWBgW1L-54" edge="1">
          <mxGeometry width="50" height="50" relative="1" as="geometry">
            <mxPoint x="920" y="120" as="sourcePoint" />
            <mxPoint x="970" y="70" as="targetPoint" />
          </mxGeometry>
        </mxCell>
        <mxCell id="6s5KsR02kv11YuWBgW1L-63" value="" style="endArrow=none;html=1;rounded=0;entryX=0;entryY=0.5;entryDx=0;entryDy=0;exitX=1;exitY=0.5;exitDx=0;exitDy=0;" parent="1" source="6s5KsR02kv11YuWBgW1L-16" target="6s5KsR02kv11YuWBgW1L-55" edge="1">
          <mxGeometry width="50" height="50" relative="1" as="geometry">
            <mxPoint x="920" y="120" as="sourcePoint" />
            <mxPoint x="970" y="70" as="targetPoint" />
          </mxGeometry>
        </mxCell>
        <mxCell id="6s5KsR02kv11YuWBgW1L-64" value="" style="endArrow=none;html=1;rounded=0;exitX=1;exitY=1;exitDx=0;exitDy=0;entryX=0;entryY=0.5;entryDx=0;entryDy=0;" parent="1" source="6s5KsR02kv11YuWBgW1L-16" target="6s5KsR02kv11YuWBgW1L-57" edge="1">
          <mxGeometry width="50" height="50" relative="1" as="geometry">
            <mxPoint x="920" y="120" as="sourcePoint" />
            <mxPoint x="970" y="70" as="targetPoint" />
          </mxGeometry>
        </mxCell>
        <mxCell id="6s5KsR02kv11YuWBgW1L-65" value="" style="endArrow=none;html=1;rounded=0;entryX=0.5;entryY=1;entryDx=0;entryDy=0;exitX=0.5;exitY=0;exitDx=0;exitDy=0;" parent="1" source="6s5KsR02kv11YuWBgW1L-56" target="6s5KsR02kv11YuWBgW1L-16" edge="1">
          <mxGeometry width="50" height="50" relative="1" as="geometry">
            <mxPoint x="890" y="150" as="sourcePoint" />
            <mxPoint x="940" y="100" as="targetPoint" />
          </mxGeometry>
        </mxCell>
        <mxCell id="6s5KsR02kv11YuWBgW1L-66" value="" style="endArrow=none;html=1;rounded=0;entryX=0;entryY=1;entryDx=0;entryDy=0;exitX=1;exitY=0;exitDx=0;exitDy=0;" parent="1" source="6s5KsR02kv11YuWBgW1L-2" target="6s5KsR02kv11YuWBgW1L-6" edge="1">
          <mxGeometry width="50" height="50" relative="1" as="geometry">
            <mxPoint x="250" y="150" as="sourcePoint" />
            <mxPoint x="300" y="100" as="targetPoint" />
          </mxGeometry>
        </mxCell>
        <mxCell id="6s5KsR02kv11YuWBgW1L-67" value="" style="endArrow=none;html=1;rounded=0;entryX=0.5;entryY=1;entryDx=0;entryDy=0;exitX=0.5;exitY=0;exitDx=0;exitDy=0;" parent="1" source="6s5KsR02kv11YuWBgW1L-2" target="6s5KsR02kv11YuWBgW1L-7" edge="1">
          <mxGeometry width="50" height="50" relative="1" as="geometry">
            <mxPoint x="270" y="130" as="sourcePoint" />
            <mxPoint x="320" y="80" as="targetPoint" />
          </mxGeometry>
        </mxCell>
        <mxCell id="6s5KsR02kv11YuWBgW1L-68" value="" style="endArrow=none;html=1;rounded=0;exitX=0.5;exitY=1;exitDx=0;exitDy=0;entryX=0.25;entryY=0;entryDx=0;entryDy=0;" parent="1" source="6s5KsR02kv11YuWBgW1L-9" target="6s5KsR02kv11YuWBgW1L-2" edge="1">
          <mxGeometry width="50" height="50" relative="1" as="geometry">
            <mxPoint x="180" y="130" as="sourcePoint" />
            <mxPoint x="230" y="80" as="targetPoint" />
          </mxGeometry>
        </mxCell>
        <mxCell id="6s5KsR02kv11YuWBgW1L-69" value="" style="endArrow=none;html=1;rounded=0;exitX=1;exitY=0.5;exitDx=0;exitDy=0;entryX=0;entryY=0;entryDx=0;entryDy=0;" parent="1" source="6s5KsR02kv11YuWBgW1L-10" target="6s5KsR02kv11YuWBgW1L-2" edge="1">
          <mxGeometry width="50" height="50" relative="1" as="geometry">
            <mxPoint x="160" y="140" as="sourcePoint" />
            <mxPoint x="210" y="90" as="targetPoint" />
            <Array as="points">
              <mxPoint x="200" y="120" />
            </Array>
          </mxGeometry>
        </mxCell>
        <mxCell id="6s5KsR02kv11YuWBgW1L-70" value="" style="endArrow=none;html=1;rounded=0;exitX=1;exitY=0.5;exitDx=0;exitDy=0;entryX=0;entryY=0.75;entryDx=0;entryDy=0;" parent="1" source="6s5KsR02kv11YuWBgW1L-13" target="6s5KsR02kv11YuWBgW1L-2" edge="1">
          <mxGeometry width="50" height="50" relative="1" as="geometry">
            <mxPoint x="150" y="190" as="sourcePoint" />
            <mxPoint x="200" y="140" as="targetPoint" />
          </mxGeometry>
        </mxCell>
        <mxCell id="6s5KsR02kv11YuWBgW1L-71" value="" style="endArrow=none;html=1;rounded=0;exitX=1;exitY=0;exitDx=0;exitDy=0;entryX=0.25;entryY=1;entryDx=0;entryDy=0;" parent="1" source="6s5KsR02kv11YuWBgW1L-11" target="6s5KsR02kv11YuWBgW1L-2" edge="1">
          <mxGeometry width="50" height="50" relative="1" as="geometry">
            <mxPoint x="190" y="230" as="sourcePoint" />
            <mxPoint x="240" y="180" as="targetPoint" />
          </mxGeometry>
        </mxCell>
        <mxCell id="6s5KsR02kv11YuWBgW1L-72" value="" style="endArrow=none;html=1;rounded=0;entryX=0.75;entryY=1;entryDx=0;entryDy=0;exitX=0.5;exitY=0;exitDx=0;exitDy=0;" parent="1" source="6s5KsR02kv11YuWBgW1L-12" target="6s5KsR02kv11YuWBgW1L-2" edge="1">
          <mxGeometry width="50" height="50" relative="1" as="geometry">
            <mxPoint x="250" y="230" as="sourcePoint" />
            <mxPoint x="300" y="180" as="targetPoint" />
          </mxGeometry>
        </mxCell>
        <mxCell id="6s5KsR02kv11YuWBgW1L-74" value="" style="endArrow=none;html=1;rounded=0;exitX=1;exitY=1;exitDx=0;exitDy=0;entryX=0.25;entryY=0;entryDx=0;entryDy=0;" parent="1" source="6s5KsR02kv11YuWBgW1L-20" target="6s5KsR02kv11YuWBgW1L-3" edge="1">
          <mxGeometry width="50" height="50" relative="1" as="geometry">
            <mxPoint x="200" y="430" as="sourcePoint" />
            <mxPoint x="250" y="380" as="targetPoint" />
          </mxGeometry>
        </mxCell>
        <mxCell id="6s5KsR02kv11YuWBgW1L-75" value="" style="endArrow=none;html=1;rounded=0;exitX=1;exitY=0.5;exitDx=0;exitDy=0;entryX=0;entryY=0.5;entryDx=0;entryDy=0;" parent="1" source="OG9TC6bBEFWWvDzXNbHQ-8" target="6s5KsR02kv11YuWBgW1L-3" edge="1">
          <mxGeometry width="50" height="50" relative="1" as="geometry">
            <mxPoint x="110" y="442.5" as="sourcePoint" />
            <mxPoint x="240" y="400" as="targetPoint" />
          </mxGeometry>
        </mxCell>
        <mxCell id="6s5KsR02kv11YuWBgW1L-76" value="" style="endArrow=none;html=1;rounded=0;exitX=0.57;exitY=0.075;exitDx=0;exitDy=0;entryX=0.25;entryY=1;entryDx=0;entryDy=0;exitPerimeter=0;" parent="1" source="OG9TC6bBEFWWvDzXNbHQ-25" target="6s5KsR02kv11YuWBgW1L-3" edge="1">
          <mxGeometry width="50" height="50" relative="1" as="geometry">
            <mxPoint x="137.5" y="490" as="sourcePoint" />
            <mxPoint x="250" y="440" as="targetPoint" />
          </mxGeometry>
        </mxCell>
        <mxCell id="6s5KsR02kv11YuWBgW1L-77" value="" style="endArrow=none;html=1;rounded=0;exitX=0.5;exitY=0;exitDx=0;exitDy=0;entryX=0.75;entryY=1;entryDx=0;entryDy=0;" parent="1" source="6s5KsR02kv11YuWBgW1L-21" target="6s5KsR02kv11YuWBgW1L-3" edge="1">
          <mxGeometry width="50" height="50" relative="1" as="geometry">
            <mxPoint x="240" y="490" as="sourcePoint" />
            <mxPoint x="290" y="440" as="targetPoint" />
          </mxGeometry>
        </mxCell>
        <mxCell id="6s5KsR02kv11YuWBgW1L-83" value="" style="endArrow=none;html=1;rounded=0;exitX=0.5;exitY=0;exitDx=0;exitDy=0;entryX=0.5;entryY=1;entryDx=0;entryDy=0;" parent="1" source="6s5KsR02kv11YuWBgW1L-39" target="6s5KsR02kv11YuWBgW1L-29" edge="1">
          <mxGeometry width="50" height="50" relative="1" as="geometry">
            <mxPoint x="540" y="690" as="sourcePoint" />
            <mxPoint x="590" y="640" as="targetPoint" />
          </mxGeometry>
        </mxCell>
        <mxCell id="6s5KsR02kv11YuWBgW1L-85" value="" style="endArrow=none;html=1;rounded=0;entryX=0.25;entryY=1;entryDx=0;entryDy=0;exitX=0.5;exitY=0;exitDx=0;exitDy=0;" parent="1" source="OG9TC6bBEFWWvDzXNbHQ-14" target="6s5KsR02kv11YuWBgW1L-34" edge="1">
          <mxGeometry width="50" height="50" relative="1" as="geometry">
            <mxPoint x="817.5" y="730" as="sourcePoint" />
            <mxPoint x="905" y="680" as="targetPoint" />
          </mxGeometry>
        </mxCell>
        <mxCell id="6s5KsR02kv11YuWBgW1L-93" value="Tener" style="rhombus;whiteSpace=wrap;html=1;fillColor=none;" parent="1" vertex="1">
          <mxGeometry x="485" y="115" width="60" height="60" as="geometry" />
        </mxCell>
        <mxCell id="6s5KsR02kv11YuWBgW1L-94" value="" style="endArrow=none;html=1;rounded=0;entryX=0.037;entryY=0.457;entryDx=0;entryDy=0;entryPerimeter=0;exitX=0.992;exitY=0.432;exitDx=0;exitDy=0;exitPerimeter=0;" parent="1" source="6s5KsR02kv11YuWBgW1L-2" target="6s5KsR02kv11YuWBgW1L-93" edge="1">
          <mxGeometry width="50" height="50" relative="1" as="geometry">
            <mxPoint x="350" y="150" as="sourcePoint" />
            <mxPoint x="520" y="190" as="targetPoint" />
          </mxGeometry>
        </mxCell>
        <mxCell id="6s5KsR02kv11YuWBgW1L-95" value="" style="endArrow=none;html=1;rounded=0;entryX=0.036;entryY=0.541;entryDx=0;entryDy=0;entryPerimeter=0;exitX=1.001;exitY=0.535;exitDx=0;exitDy=0;exitPerimeter=0;" parent="1" source="6s5KsR02kv11YuWBgW1L-2" target="6s5KsR02kv11YuWBgW1L-93" edge="1">
          <mxGeometry width="50" height="50" relative="1" as="geometry">
            <mxPoint x="310" y="150" as="sourcePoint" />
            <mxPoint x="488" y="150" as="targetPoint" />
          </mxGeometry>
        </mxCell>
        <mxCell id="6s5KsR02kv11YuWBgW1L-96" value="" style="endArrow=block;html=1;rounded=0;endFill=1;entryX=0;entryY=0.5;entryDx=0;entryDy=0;exitX=1;exitY=0.5;exitDx=0;exitDy=0;" parent="1" source="6s5KsR02kv11YuWBgW1L-93" target="6s5KsR02kv11YuWBgW1L-4" edge="1">
          <mxGeometry width="50" height="50" relative="1" as="geometry">
            <mxPoint x="600" y="200" as="sourcePoint" />
            <mxPoint x="650" y="150" as="targetPoint" />
          </mxGeometry>
        </mxCell>
        <mxCell id="6s5KsR02kv11YuWBgW1L-102" value="Atender" style="rhombus;whiteSpace=wrap;html=1;fillColor=none;" parent="1" vertex="1">
          <mxGeometry x="490" y="270" width="60" height="60" as="geometry" />
        </mxCell>
        <mxCell id="6s5KsR02kv11YuWBgW1L-103" value="" style="endArrow=none;html=1;rounded=0;entryX=1;entryY=0.5;entryDx=0;entryDy=0;exitX=0;exitY=0.5;exitDx=0;exitDy=0;" parent="1" source="6s5KsR02kv11YuWBgW1L-25" target="6s5KsR02kv11YuWBgW1L-102" edge="1">
          <mxGeometry width="50" height="50" relative="1" as="geometry">
            <mxPoint x="550" y="320" as="sourcePoint" />
            <mxPoint x="600" y="270" as="targetPoint" />
          </mxGeometry>
        </mxCell>
        <mxCell id="6s5KsR02kv11YuWBgW1L-104" value="" style="endArrow=none;html=1;rounded=0;entryX=0.149;entryY=0.659;entryDx=0;entryDy=0;entryPerimeter=0;exitX=0.932;exitY=-0.016;exitDx=0;exitDy=0;exitPerimeter=0;" parent="1" source="6s5KsR02kv11YuWBgW1L-3" target="6s5KsR02kv11YuWBgW1L-102" edge="1">
          <mxGeometry width="50" height="50" relative="1" as="geometry">
            <mxPoint x="420" y="300" as="sourcePoint" />
            <mxPoint x="470" y="250" as="targetPoint" />
          </mxGeometry>
        </mxCell>
        <mxCell id="6s5KsR02kv11YuWBgW1L-105" value="" style="endArrow=none;html=1;rounded=0;entryX=0.211;entryY=0.718;entryDx=0;entryDy=0;exitX=1;exitY=0;exitDx=0;exitDy=0;entryPerimeter=0;" parent="1" source="6s5KsR02kv11YuWBgW1L-3" target="6s5KsR02kv11YuWBgW1L-102" edge="1">
          <mxGeometry width="50" height="50" relative="1" as="geometry">
            <mxPoint x="500" y="280" as="sourcePoint" />
            <mxPoint x="550" y="230" as="targetPoint" />
          </mxGeometry>
        </mxCell>
        <mxCell id="6s5KsR02kv11YuWBgW1L-106" value="" style="endArrow=none;html=1;rounded=0;entryX=1;entryY=1;entryDx=0;entryDy=0;exitX=0.206;exitY=0.294;exitDx=0;exitDy=0;exitPerimeter=0;" parent="1" source="6s5KsR02kv11YuWBgW1L-102" target="6s5KsR02kv11YuWBgW1L-2" edge="1">
          <mxGeometry width="50" height="50" relative="1" as="geometry">
            <mxPoint x="420" y="210" as="sourcePoint" />
            <mxPoint x="470" y="160" as="targetPoint" />
          </mxGeometry>
        </mxCell>
        <mxCell id="6s5KsR02kv11YuWBgW1L-107" value="" style="endArrow=none;html=1;rounded=0;entryX=1.003;entryY=0.896;entryDx=0;entryDy=0;exitX=0.279;exitY=0.229;exitDx=0;exitDy=0;exitPerimeter=0;entryPerimeter=0;" parent="1" source="6s5KsR02kv11YuWBgW1L-102" target="6s5KsR02kv11YuWBgW1L-2" edge="1">
          <mxGeometry width="50" height="50" relative="1" as="geometry">
            <mxPoint x="420" y="210" as="sourcePoint" />
            <mxPoint x="470" y="160" as="targetPoint" />
          </mxGeometry>
        </mxCell>
        <mxCell id="6s5KsR02kv11YuWBgW1L-109" value="" style="endArrow=none;html=1;rounded=0;entryX=0.5;entryY=1;entryDx=0;entryDy=0;exitX=0.5;exitY=0;exitDx=0;exitDy=0;" parent="1" source="6s5KsR02kv11YuWBgW1L-4" target="6s5KsR02kv11YuWBgW1L-14" edge="1">
          <mxGeometry width="50" height="50" relative="1" as="geometry">
            <mxPoint x="690" y="170" as="sourcePoint" />
            <mxPoint x="740" y="120" as="targetPoint" />
          </mxGeometry>
        </mxCell>
        <mxCell id="6s5KsR02kv11YuWBgW1L-110" value="" style="endArrow=none;html=1;rounded=0;entryX=0.5;entryY=0;entryDx=0;entryDy=0;exitX=0.75;exitY=1;exitDx=0;exitDy=0;" parent="1" source="6s5KsR02kv11YuWBgW1L-4" target="OG9TC6bBEFWWvDzXNbHQ-7" edge="1">
          <mxGeometry width="50" height="50" relative="1" as="geometry">
            <mxPoint x="690" y="170" as="sourcePoint" />
            <mxPoint x="797.5" y="205" as="targetPoint" />
          </mxGeometry>
        </mxCell>
        <mxCell id="6s5KsR02kv11YuWBgW1L-111" value="" style="endArrow=none;html=1;rounded=0;entryX=0;entryY=0.5;entryDx=0;entryDy=0;exitX=1;exitY=0;exitDx=0;exitDy=0;" parent="1" source="6s5KsR02kv11YuWBgW1L-4" target="6s5KsR02kv11YuWBgW1L-16" edge="1">
          <mxGeometry width="50" height="50" relative="1" as="geometry">
            <mxPoint x="690" y="170" as="sourcePoint" />
            <mxPoint x="740" y="120" as="targetPoint" />
          </mxGeometry>
        </mxCell>
        <mxCell id="6s5KsR02kv11YuWBgW1L-112" value="" style="endArrow=none;html=1;rounded=0;entryX=0.5;entryY=1;entryDx=0;entryDy=0;exitX=1;exitY=0.5;exitDx=0;exitDy=0;" parent="1" source="6s5KsR02kv11YuWBgW1L-26" target="6s5KsR02kv11YuWBgW1L-25" edge="1">
          <mxGeometry width="50" height="50" relative="1" as="geometry">
            <mxPoint x="860" y="430" as="sourcePoint" />
            <mxPoint x="910" y="380" as="targetPoint" />
          </mxGeometry>
        </mxCell>
        <mxCell id="6s5KsR02kv11YuWBgW1L-113" value="" style="endArrow=none;html=1;rounded=0;entryX=0.002;entryY=0.005;entryDx=0;entryDy=0;entryPerimeter=0;exitX=1;exitY=0.5;exitDx=0;exitDy=0;" parent="1" source="6s5KsR02kv11YuWBgW1L-29" target="6s5KsR02kv11YuWBgW1L-26" edge="1">
          <mxGeometry width="50" height="50" relative="1" as="geometry">
            <mxPoint x="760" y="580" as="sourcePoint" />
            <mxPoint x="810" y="530" as="targetPoint" />
          </mxGeometry>
        </mxCell>
        <mxCell id="6s5KsR02kv11YuWBgW1L-114" value="" style="endArrow=none;html=1;rounded=0;entryX=0;entryY=0.5;entryDx=0;entryDy=0;exitX=0.5;exitY=0;exitDx=0;exitDy=0;" parent="1" source="6s5KsR02kv11YuWBgW1L-34" target="6s5KsR02kv11YuWBgW1L-26" edge="1">
          <mxGeometry width="50" height="50" relative="1" as="geometry">
            <mxPoint x="710" y="580" as="sourcePoint" />
            <mxPoint x="760" y="530" as="targetPoint" />
          </mxGeometry>
        </mxCell>
        <mxCell id="6s5KsR02kv11YuWBgW1L-115" value="" style="endArrow=none;html=1;rounded=0;exitX=0.002;exitY=0.971;exitDx=0;exitDy=0;exitPerimeter=0;entryX=0;entryY=0.25;entryDx=0;entryDy=0;" parent="1" source="6s5KsR02kv11YuWBgW1L-26" target="6s5KsR02kv11YuWBgW1L-35" edge="1">
          <mxGeometry width="50" height="50" relative="1" as="geometry">
            <mxPoint x="910" y="540" as="sourcePoint" />
            <mxPoint x="960" y="490" as="targetPoint" />
          </mxGeometry>
        </mxCell>
        <mxCell id="OG9TC6bBEFWWvDzXNbHQ-1" value="&lt;u&gt;IdMascota&lt;/u&gt;" style="ellipse;whiteSpace=wrap;html=1;fillColor=none;" vertex="1" parent="1">
          <mxGeometry x="320" y="10" width="75" height="30" as="geometry" />
        </mxCell>
        <mxCell id="OG9TC6bBEFWWvDzXNbHQ-7" value="Telefono" style="ellipse;shape=doubleEllipse;margin=3;whiteSpace=wrap;html=1;align=center;" vertex="1" parent="1">
          <mxGeometry x="750" y="205" width="100" height="40" as="geometry" />
        </mxCell>
        <mxCell id="OG9TC6bBEFWWvDzXNbHQ-8" value="Telefono" style="ellipse;shape=doubleEllipse;margin=3;whiteSpace=wrap;html=1;align=center;" vertex="1" parent="1">
          <mxGeometry x="20" y="414" width="100" height="40" as="geometry" />
        </mxCell>
        <mxCell id="OG9TC6bBEFWWvDzXNbHQ-9" value="IdServicio" style="ellipse;whiteSpace=wrap;html=1;align=center;fontStyle=4;" vertex="1" parent="1">
          <mxGeometry x="1010" y="281" width="100" height="40" as="geometry" />
        </mxCell>
        <mxCell id="OG9TC6bBEFWWvDzXNbHQ-12" value="Dosis" style="ellipse;whiteSpace=wrap;html=1;align=center;" vertex="1" parent="1">
          <mxGeometry x="920" y="740" width="100" height="40" as="geometry" />
        </mxCell>
        <mxCell id="OG9TC6bBEFWWvDzXNbHQ-13" value="" style="endArrow=none;html=1;rounded=0;exitX=0.75;exitY=1;exitDx=0;exitDy=0;entryX=0.5;entryY=0;entryDx=0;entryDy=0;" edge="1" parent="1" source="6s5KsR02kv11YuWBgW1L-34" target="OG9TC6bBEFWWvDzXNbHQ-12">
          <mxGeometry relative="1" as="geometry">
            <mxPoint x="970" y="659" as="sourcePoint" />
            <mxPoint x="1130" y="659" as="targetPoint" />
          </mxGeometry>
        </mxCell>
        <mxCell id="OG9TC6bBEFWWvDzXNbHQ-14" value="Producto" style="ellipse;whiteSpace=wrap;html=1;align=center;" vertex="1" parent="1">
          <mxGeometry x="780" y="740" width="100" height="40" as="geometry" />
        </mxCell>
        <mxCell id="OG9TC6bBEFWWvDzXNbHQ-15" value="" style="endArrow=none;html=1;rounded=0;exitX=0.25;exitY=1;exitDx=0;exitDy=0;entryX=0.44;entryY=-0.033;entryDx=0;entryDy=0;entryPerimeter=0;" edge="1" parent="1" source="6s5KsR02kv11YuWBgW1L-35" target="6s5KsR02kv11YuWBgW1L-52">
          <mxGeometry relative="1" as="geometry">
            <mxPoint x="1100" y="640" as="sourcePoint" />
            <mxPoint x="1139" y="710" as="targetPoint" />
          </mxGeometry>
        </mxCell>
        <mxCell id="OG9TC6bBEFWWvDzXNbHQ-16" value="" style="endArrow=none;html=1;rounded=0;exitX=0.75;exitY=1;exitDx=0;exitDy=0;entryX=0.5;entryY=0;entryDx=0;entryDy=0;" edge="1" parent="1" source="6s5KsR02kv11YuWBgW1L-35" target="6s5KsR02kv11YuWBgW1L-48">
          <mxGeometry relative="1" as="geometry">
            <mxPoint x="1230" y="660" as="sourcePoint" />
            <mxPoint x="1269" y="730" as="targetPoint" />
          </mxGeometry>
        </mxCell>
        <mxCell id="OG9TC6bBEFWWvDzXNbHQ-17" value="" style="endArrow=none;html=1;rounded=0;exitX=0.75;exitY=0;exitDx=0;exitDy=0;" edge="1" parent="1" source="6s5KsR02kv11YuWBgW1L-2" target="OG9TC6bBEFWWvDzXNbHQ-1">
          <mxGeometry width="50" height="50" relative="1" as="geometry">
            <mxPoint x="265" y="130" as="sourcePoint" />
            <mxPoint x="283" y="90" as="targetPoint" />
          </mxGeometry>
        </mxCell>
        <mxCell id="OG9TC6bBEFWWvDzXNbHQ-18" value="Edad" style="ellipse;whiteSpace=wrap;html=1;align=center;dashed=1;" vertex="1" parent="1">
          <mxGeometry x="470" y="374" width="100" height="40" as="geometry" />
        </mxCell>
        <mxCell id="OG9TC6bBEFWWvDzXNbHQ-20" value="" style="endArrow=none;html=1;rounded=0;entryX=0.5;entryY=1;entryDx=0;entryDy=0;" edge="1" parent="1" target="6s5KsR02kv11YuWBgW1L-102">
          <mxGeometry relative="1" as="geometry">
            <mxPoint x="520" y="374" as="sourcePoint" />
            <mxPoint x="560" y="230" as="targetPoint" />
          </mxGeometry>
        </mxCell>
        <mxCell id="OG9TC6bBEFWWvDzXNbHQ-21" value="Peso" style="ellipse;whiteSpace=wrap;html=1;align=center;" vertex="1" parent="1">
          <mxGeometry x="600" y="340" width="100" height="40" as="geometry" />
        </mxCell>
        <mxCell id="OG9TC6bBEFWWvDzXNbHQ-22" value="" style="endArrow=none;html=1;rounded=0;entryX=1;entryY=1;entryDx=0;entryDy=0;exitX=0.5;exitY=0;exitDx=0;exitDy=0;" edge="1" parent="1" source="OG9TC6bBEFWWvDzXNbHQ-21" target="6s5KsR02kv11YuWBgW1L-102">
          <mxGeometry relative="1" as="geometry">
            <mxPoint x="505" y="380" as="sourcePoint" />
            <mxPoint x="530" y="340" as="targetPoint" />
          </mxGeometry>
        </mxCell>
        <mxCell id="OG9TC6bBEFWWvDzXNbHQ-23" value="IdPropietario" style="ellipse;whiteSpace=wrap;html=1;align=center;fontStyle=4;" vertex="1" parent="1">
          <mxGeometry x="880" y="190" width="100" height="40" as="geometry" />
        </mxCell>
        <mxCell id="OG9TC6bBEFWWvDzXNbHQ-24" value="" style="endArrow=none;html=1;rounded=0;entryX=0.02;entryY=0.35;entryDx=0;entryDy=0;exitX=1;exitY=1;exitDx=0;exitDy=0;entryPerimeter=0;" edge="1" parent="1" source="6s5KsR02kv11YuWBgW1L-4" target="OG9TC6bBEFWWvDzXNbHQ-23">
          <mxGeometry width="50" height="50" relative="1" as="geometry">
            <mxPoint x="773" y="180" as="sourcePoint" />
            <mxPoint x="810" y="215" as="targetPoint" />
          </mxGeometry>
        </mxCell>
        <mxCell id="OG9TC6bBEFWWvDzXNbHQ-25" value="Correo" style="ellipse;shape=doubleEllipse;margin=3;whiteSpace=wrap;html=1;align=center;" vertex="1" parent="1">
          <mxGeometry x="55" y="500" width="100" height="40" as="geometry" />
        </mxCell>
        <mxCell id="OG9TC6bBEFWWvDzXNbHQ-26" value="PróximaCita" style="ellipse;whiteSpace=wrap;html=1;align=center;" vertex="1" parent="1">
          <mxGeometry x="570" y="420" width="100" height="40" as="geometry" />
        </mxCell>
        <mxCell id="OG9TC6bBEFWWvDzXNbHQ-27" value="Fecha" style="ellipse;whiteSpace=wrap;html=1;align=center;" vertex="1" parent="1">
          <mxGeometry x="360" y="414" width="100" height="40" as="geometry" />
        </mxCell>
        <mxCell id="OG9TC6bBEFWWvDzXNbHQ-28" value="" style="endArrow=none;html=1;rounded=0;exitX=0.5;exitY=0;exitDx=0;exitDy=0;" edge="1" parent="1" source="OG9TC6bBEFWWvDzXNbHQ-27">
          <mxGeometry relative="1" as="geometry">
            <mxPoint x="530" y="384" as="sourcePoint" />
            <mxPoint x="510" y="319" as="targetPoint" />
          </mxGeometry>
        </mxCell>
        <mxCell id="OG9TC6bBEFWWvDzXNbHQ-29" value="" style="endArrow=none;html=1;rounded=0;exitX=0.5;exitY=0;exitDx=0;exitDy=0;entryX=0.667;entryY=0.867;entryDx=0;entryDy=0;entryPerimeter=0;" edge="1" parent="1" source="OG9TC6bBEFWWvDzXNbHQ-26" target="6s5KsR02kv11YuWBgW1L-102">
          <mxGeometry relative="1" as="geometry">
            <mxPoint x="540" y="394" as="sourcePoint" />
            <mxPoint x="530" y="340" as="targetPoint" />
          </mxGeometry>
        </mxCell>
      </root>
    </mxGraphModel>
  </diagram>
</mxfile>
